<svg width="18" height="16" viewBox="0 0 18 16" fill="none" xmlns="http://www.w3.org/2000/svg">
<g id="&#240;&#159;&#166;&#134; icon &#34;envelope&#34;">
<path id="Vector" d="M16.2 0H1.8C0.8073 0 0 0.853542 0 1.9031V13.3217C0 14.3713 0.8073 15.2248 1.8 15.2248H16.2C17.1927 15.2248 18 14.3713 18 13.3217V1.9031C18 0.853542 17.1927 0 16.2 0ZM16.2 1.9031V2.38935L9 8.31085L1.8 2.3903V1.9031H16.2ZM1.8 13.3217V4.79962L8.4474 10.2663C8.6094 10.4005 8.8047 10.4671 9 10.4671C9.1953 10.4671 9.3906 10.4005 9.5526 10.2663L16.2 4.79962L16.2018 13.3217H1.8Z" fill="white"/>
</g>
</svg>
