<svg width="18" height="20" viewBox="0 0 18 20" fill="none" xmlns="http://www.w3.org/2000/svg">
<g id="&#240;&#159;&#166;&#134; icon &#34;phone&#34;">
<path id="Vector" d="M17.6694 14.9078L13.5621 10.9594C13.1589 10.5716 12.5365 10.5919 12.1566 11.0054L9.73868 13.6344C9.15668 13.5169 7.98661 13.1313 6.7822 11.8611C5.57778 10.5866 5.21302 9.34629 5.10491 8.73523L7.58952 6.17774C7.98156 5.77606 7.99975 5.11906 7.63297 4.69175L3.89948 0.350206C3.5327 -0.0781794 2.90927 -0.118774 2.49399 0.257264L0.301389 2.24536C0.126587 2.43124 0.0225141 2.67695 0.00836823 2.93868C-0.00678801 3.20575 -0.295767 9.53218 4.34406 14.4399C8.39179 18.7184 13.4621 19.0314 14.8585 19.0314C15.0626 19.0314 15.1878 19.025 15.2212 19.0229C15.4687 19.0079 15.7011 18.8979 15.8759 18.712L17.7553 16.3927C18.113 15.9537 18.0736 15.2956 17.6694 14.9078Z" fill="white"/>
</g>
</svg>
